<?xml version="1.0" standalone="no"?>
<!DOCTYPE svg PUBLIC "-//W3C//DTD SVG 20010904//EN"
 "http://www.w3.org/TR/2001/REC-SVG-20010904/DTD/svg10.dtd">
<svg version="1.0" xmlns="http://www.w3.org/2000/svg"
 width="380.000000pt" height="259.000000pt" viewBox="0 0 380.000000 259.000000"
 preserveAspectRatio="xMidYMid meet">
<metadata>
Created by potrace 1.16, written by Peter Selinger 2001-2019
</metadata>
<g transform="translate(0.000000,259.000000) scale(0.100000,-0.100000)"
fill="#000000" stroke="none">
<path d="M2290 1969 c-37 -15 -119 -109 -132 -151 -8 -29 -8 -48 1 -78 7 -22
9 -45 6 -51 -21 -33 41 -199 68 -182 16 10 -4 95 -39 166 -15 32 -20 82 -5 59
5 -9 10 4 15 37 8 61 46 111 83 111 38 0 83 -31 83 -57 0 -12 5 -25 10 -28 17
-10 11 -33 -10 -40 -44 -14 -12 -71 35 -63 21 4 25 1 25 -19 0 -27 -26 -41
-43 -24 -14 14 -30 15 -22 1 3 -6 -5 -14 -19 -20 -28 -10 -26 -39 3 -41 10 0
11 -2 3 -6 -7 -2 -17 -14 -23 -25 -11 -20 -9 -21 26 -15 47 8 43 -11 -8 -36
-30 -15 -37 -24 -37 -48 0 -22 6 -32 25 -39 28 -11 31 -17 40 -75 3 -21 17
-69 30 -107 l24 -67 -22 -18 c-12 -10 -30 -35 -39 -55 l-17 -37 25 9 c37 15
42 13 59 -20 9 -16 22 -30 30 -30 7 0 26 27 41 60 15 33 30 60 34 60 13 0 30
-53 27 -85 -1 -20 2 -29 11 -28 8 2 12 -10 12 -37 l0 -40 65 0 65 0 1 43 c2
84 7 138 13 144 3 3 1 12 -5 19 -6 8 -9 21 -5 29 7 18 -10 20 -21 3 -12 -20
-12 -36 1 -34 6 0 11 -3 11 -9 0 -5 -4 -9 -9 -7 -5 2 -4 -4 3 -12 8 -10 9 -21
3 -32 -8 -14 -12 -13 -29 12 -11 16 -28 44 -37 62 -15 29 -15 35 -1 62 9 17
20 28 24 25 13 -7 33 48 33 90 0 23 -19 75 -56 149 -31 63 -56 121 -56 129 0
39 -84 238 -116 275 -51 60 -133 91 -184 71z"/>
<path d="M1735 640 c-4 -18 -2 -36 4 -44 6 -7 8 -16 4 -19 -3 -4 0 -14 7 -22
10 -12 10 -19 1 -28 -8 -8 -14 -9 -19 -1 -5 7 -25 5 -62 -7 -30 -10 -50 -18
-45 -19 6 0 4 -4 -4 -9 -10 -6 -10 -13 -3 -28 16 -29 112 -99 192 -140 39 -19
74 -42 79 -50 6 -11 10 -12 15 -4 12 19 35 12 84 -24 26 -20 50 -34 53 -33 11
5 39 -31 38 -49 0 -16 -1 -16 -9 2 -7 17 -9 17 -9 3 -1 -10 -8 -18 -16 -18
-18 0 -65 -21 -65 -29 0 -4 24 -4 53 -1 48 5 52 7 55 33 3 28 22 38 22 11 0
-9 5 -12 13 -8 6 4 3 -3 -8 -15 -11 -13 -29 -27 -40 -32 -11 -4 67 -8 185 -9
113 -1 212 -3 220 -4 8 -2 30 -3 48 -4 21 -1 32 -7 32 -17 0 -8 5 -15 11 -15
5 0 7 4 4 10 -3 6 1 7 10 4 8 -4 21 -1 29 5 24 20 87 7 102 -20 13 -24 13 -24
14 -2 0 20 4 22 33 16 17 -3 38 -11 46 -17 11 -8 13 -8 7 1 -11 19 2 16 26 -7
22 -21 43 -17 34 6 -4 10 3 14 25 14 18 0 28 4 24 10 -4 6 5 10 20 10 23 0 24
2 15 20 -8 15 -15 18 -28 12 -9 -5 -44 -7 -77 -5 -100 7 -147 6 -215 -4 -74
-12 -94 -6 -108 35 -9 27 -14 29 -78 36 -88 8 -102 11 -110 19 -3 3 -13 -1
-21 -9 -9 -9 -22 -12 -32 -8 -9 4 -23 7 -32 8 -14 0 -13 8 8 58 12 32 23 67
23 79 0 19 4 21 33 15 31 -5 31 -5 8 8 l-24 13 34 5 c20 3 37 1 41 -6 11 -16
10 -48 -1 -41 -12 7 -16 -1 -25 -40 -6 -23 -5 -27 4 -18 9 9 20 7 44 -8 17
-10 37 -19 44 -19 8 0 30 -7 49 -17 30 -14 36 -14 44 -2 5 8 42 19 91 26 46 7
102 16 125 19 24 4 40 10 37 15 -3 5 2 9 10 9 8 0 22 7 30 15 8 9 39 27 68 41
110 52 137 78 138 130 0 16 -6 20 -29 18 -16 -1 -39 5 -50 13 -22 15 -28 43
-10 43 8 0 7 5 -1 15 -7 9 -13 30 -12 47 0 17 -5 37 -13 44 -17 17 -52 18 -58
2 -3 -10 -9 -10 -23 -2 -25 14 -80 -8 -89 -36 -3 -11 -13 -20 -22 -20 -8 0
-17 -9 -20 -20 -3 -11 -10 -20 -15 -20 -6 0 -8 6 -5 14 3 8 9 31 13 50 8 45
-11 49 -21 6 -4 -17 -17 -41 -28 -54 -47 -49 -57 -51 -302 -49 -251 1 -348 8
-368 26 -7 7 -19 13 -26 15 -8 2 -33 19 -56 38 -24 19 -47 34 -51 32 -5 -1
-18 3 -29 9 -11 6 -34 14 -52 17 -29 7 -32 5 -38 -24z"/>
</g>
</svg>
